    <svg xmlns="http://www.w3.org/2000/svg" viewBox="0 0 426.08 426.04">
      <g fill="#010101">
        <path
          fillRule="evenodd"
          d="M85.504 75.002c-.122-.01-1.523.006-1.678.045-.617 0-.977.238-1.08.71l-32.898 116.13c-2.368 8.358-4.479 14.665-6.332 18.923s-3.81 7.254-5.869 8.988c-1.956 1.735-2.146 2.244-5.03 2.244-.411 0-.616.474-.616 1.42s.205 1.418.617 1.418c2.06 0 2.508.2 5.802-.115 3.707-.315 6.9-.473 9.577-.473 2.883 0 6.278.158 10.19.473 3.501.315 3.573.22 5.427.22.514 0 .771-.473.771-1.42s-.257-1.417-.772-1.417c-4.839 0-5.224-1.009-7.798-3.531-2.574-2.523-3.862-6.308-3.862-11.354 0-3.47.721-7.885 2.162-13.246l8.596-30.512h35.535l12.908 40.684c1.545 4.73 2.319 8.434 2.319 11.115 0 2.68-.774 4.574-2.319 5.677-1.544.946-1.097 1.166-4.597 1.166-.412 0-.62.472-.62 1.418s.208 1.42.62 1.42c1.75 0 2.032.095 5.533-.22 3.5-.316 6.434-.473 8.802-.473 1.854 0 4.944.157 9.268.472 4.119.316 5.112.116 7.068.116.515 0 .772-.472.772-1.418s-.257-1.737-.772-1.737c-3.089 0-2.564-1.375-5.035-5.474-2.368-4.1-5.353-11.905-8.957-23.416L86.17 75.755c-.077-.473-.299-.727-.666-.756zm-1.885 12.877l31.105 98.717c3.704 10.982 6.527 22.764 12.21 32.365.375.99 2.216 2.14 1.378 3.064-5.671-.828-7.19-.753-12.746-.484-1.066-.669-.438-1.47-.144-2.232.76-3.136.526-6.545-.045-9.703-3.106-11.37-6.854-22.487-10.31-33.707L80.973 97.766l2.646-9.887zm-4.377 16.486l16.865 53.938H64.533l14.71-53.938zm70.717 38.621a6.656 6.656 0 00-6.615 6.656 6.656 6.656 0 006.656 6.656 6.656 6.656 0 006.656-6.656 6.656 6.656 0 00-6.656-6.656 6.656 6.656 0 00-.04 0zM48.58 203.713c-1.12 9.092-.523 11.88 4.832 17.695-4.041-1.125-6.322-.975-13.443-.498 4.417-4.836 6.164-9.827 8.612-17.197z"
          paintOrder="markers fill stroke"
          transform="translate(62.971 63.013)"
        ></path>
        <path
          d="M74.528 17.163v5.68h8.75c5.833 0 10.436 1.023 13.813 3.07 3.48 1.944 5.783 4.247 6.909 6.908 1.228 2.66 1.842 9.312 1.842 19.955v111.29c0 21.696-.614 34.95-1.842 39.76-1.126 4.707-3.12 8.184-5.986 10.436-2.865 2.25-10.27 3.376-14.67 3.376-6.243 0-11.311-1.432-15.2-4.297-2.66-1.945-3.99-4.247-3.99-6.908 0-1.74 1.38-4.655 4.144-8.749 2.865-4.196 4.505-6.805 4.914-7.828.717-2.15 1.073-4.656 1.073-7.52 0-5.834-2.148-10.747-6.446-14.738-4.196-3.991-9.417-5.987-15.66-5.987-6.344 0-11.715 2.25-16.115 6.753-4.4 4.4-6.602 10.185-6.602 17.348 0 11.155 5.375 21.336 16.12 30.546 10.847 9.21 25.02 13.816 42.52 13.816 24.646-1.727 37.177-8.363 43.83-30.24 3.992-9.108 2.967-25.174 2.967-45.13V52.777c0-10.438.563-16.886 1.69-19.342 1.534-3.48 3.582-5.934 6.14-7.366 3.684-2.15 8.595-3.225 14.735-3.225h6.755v-5.68zm41.1 5.521c9.533 0 13.56.144 13.56.319 0 .174-.696 2.228-1.892 4.475l-1.893 4.156-.482 71.07c-.646 30.02 1.023 60.346-1.29 90.364-1.553 15.595-15.388 23.15-17.427 21.75 3.078-3.531 4.27-11.796 4.6-20.485.459-5.835.702-43.2.565-86.946-.254-80.686-.086-74.852-3.585-83.217-.582-1.393-8.343-1.49 7.843-1.49zM49.357 166.38c7.62 0 13.52 6.012 13.52 13.777 0 3.535-.9 6.066-3.905 10.965-4.754 7.754-5.918 14.871-3.252 19.9.962 1.814 1.75 3.443 1.75 3.62 0 1.138-2.502-.218-6.878-3.73-7.234-5.807-11.23-10.877-13.834-17.554-5.274-13.522 1.01-26.978 12.6-26.978z"
          ariaLabel="J"
          transform="translate(62.971 63.013) matrix(.73466 0 0 .70452 142.86 62.909)"
        ></path>
        <path
          d="M150.05-53.013c-.312 0-.778.155-.934.467a73.848 73.848 0 00-6.187 12.637c-3.36-1.816-6.97-3.13-10.641-3.756-.468 0-.934.157-1.09.469-.156.467-.156.934 0 1.246 2.488 4.092 3.85 8.763 4.084 13.502a46.966 46.966 0 00-10.006-4.778c-.467-.155-.934.001-1.246.47-.312.467-.155 1.09.156 1.401 2.337 2.338 2.493 5.92 1.87 8.569-.614 3.068-2.436 5.984-4.128 8.75-2.507.425-4.998.91-7.474 1.447a14.814 14.814 0 003.187-2.406c3.272-3.428 4.675-7.947 3.74-12.465-.623-4.363-3.115-8.414-6.699-11.22-2.181-1.713-5.142-3.427-9.193-2.804-6.544.935-9.193 5.92-8.881 10.283.312 4.207 3.582 8.727 9.97 8.727 3.117 0 5.61-3.116 5.923-5.453.391-2.219-.323-4.208-1.842-5.44a2.433 2.433 0 00-.653-2.195c-.934-.935-2.492-.935-3.427 0s-.935 2.493 0 3.428c.75.749 1.896.887 2.804.435.816.73 1.19 1.91.936 3.303-.156 1.402-1.87 3.584-3.74 3.584-4.986 0-7.478-3.427-7.79-6.7s1.869-7.168 7.01-7.947c2.65-.311 4.832.313 7.481 2.338 3.116 2.337 5.296 5.92 5.764 9.66.467 3.896-.78 7.947-3.428 10.596-2.96 3.428-8.102 4.83-13.867 4.207-4.674-.467-9.192-2.182-13.555-3.896l-1.402-.467c-4.986-1.87-10.283-3.74-15.893-3.584-.935 0-2.026.157-2.961.313-6.233-4.051-15.113-3.74-21.97.779-4.885 3.336-8.67 8.863-10.603 15.389a2.337 2.337 0 00-.485.342 138.94 138.94 0 01-11.66-.463c-.623 0-1.246.468-1.246 1.092 0 .158.03.316.086.465a50.579 50.579 0 00-1.238 13.074c-.26.115-.508.273-.719.484-.025.025-.042.056-.066.082a238.971 238.971 0 01-6.56-.635 2.365 2.365 0 00-.54-.85 2.361 2.361 0 00-.701-.476C12.017 4.641 9.92.319 6.392-2.687 3.12-5.647-1.553-7.205-6.383-7.361c-.623 0-1.092.467-1.092 1.09.156 4.83 1.87 9.35 4.674 12.777 3.05 3.58 7.568 5.686 11.92 5.852.106.192.23.375.39.537.247.246.538.422.848.539.247 2.218.461 4.439.645 6.662a2.337 2.337 0 00-.537.787 51.299 51.299 0 00-12.87 1.203 1.137 1.137 0 00-.55-.154c-.623.156-1.092.623-1.092 1.246.324 3.884.47 7.71.463 11.508a2.337 2.337 0 00-.627.922c-6.538 1.893-12.075 5.617-15.416 10.629-4.674 6.7-4.83 15.738-.779 21.97-.156.936-.313 1.869-.313 2.96-.155 5.609 1.715 10.907 3.584 15.893l.47 1.402c1.713 4.363 3.426 8.882 3.894 13.557.623 5.61-.935 10.595-4.051 13.711l-.156.156c-2.65 2.65-6.7 3.895-10.596 3.428-3.74-.467-7.323-2.65-9.66-5.766-2.026-2.648-2.648-4.83-2.336-7.478.623-5.142 4.673-7.323 7.945-7.012 3.428.312 6.7 2.805 6.7 7.791 0 1.87-2.18 3.583-3.583 3.738-1.438.262-2.652-.14-3.375-1.011a2.337 2.337 0 00.414-1.324 2.337 2.337 0 00-2.338-2.338 2.337 2.337 0 00-2.336 2.338 2.337 2.337 0 002.336 2.335 2.337 2.337 0 00.09-.002c1.203 1.65 3.312 2.601 5.676 2.184 2.337-.312 5.453-2.804 5.453-5.92 0-6.388-4.518-9.66-8.725-9.973s-9.348 2.337-10.283 8.881c-.623 4.207 1.245 7.168 2.803 9.194 2.805 3.74 6.856 6.076 11.219 6.699 4.674.623 9.35-.779 12.621-4.05a14.66 14.66 0 002.414-3.225 165.679 165.679 0 00-1.482 7.683c-2.752 1.682-5.512 3.347-8.723 4.111-2.649.624-6.231.468-8.568-1.869-.468-.311-.935-.468-1.403-.156-.467.156-.624.779-.468 1.246a47.203 47.203 0 004.865 10.008c-4.767-.23-9.49-1.595-13.59-4.088-.468-.311-.935-.311-1.246 0-.312.156-.47.625-.47 1.092.707 3.618 1.98 7.177 3.73 10.496a73.829 73.829 0 00-12.61 6.176c-.311.156-.466.622-.466.934s.155.78.466.935c4 2.462 8.208 4.509 12.568 6.16-1.78 3.324-3.068 6.889-3.687 10.512 0 .468.157.779.469 1.09.467.156.934.156 1.246 0 4.122-2.505 8.831-3.868 13.605-4.088a46.965 46.965 0 00-4.881 10.166c-.156.468 0 .935.469 1.246.467.312 1.09.156 1.402-.156 2.337-2.181 5.92-2.492 8.568-1.87 3.069.615 5.984 2.436 8.75 4.128.424 2.5.908 4.985 1.444 7.455a14.452 14.452 0 00-2.559-3.324c-3.272-2.96-7.946-4.52-12.465-3.897-4.362.624-8.414 3.118-11.219 6.701-1.714 2.182-3.426 5.14-2.802 9.192.934 6.544 5.92 9.194 10.283 8.883 4.206-.312 8.724-3.585 8.724-9.973 0-3.116-3.116-5.608-5.453-5.92-2.38-.42-4.5.425-5.7 2.182a2.337 2.337 0 00-.066-.002 2.337 2.337 0 00-2.335 2.338 2.337 2.337 0 002.335 2.338 2.337 2.337 0 002.338-2.338 2.337 2.337 0 00-.414-1.325c.723-.87 1.937-1.275 3.375-1.013 1.403.156 3.582 1.87 3.582 3.74 0 4.986-3.427 7.48-6.699 7.791s-7.166-1.87-7.945-7.012c-.312-2.649.31-4.83 2.336-7.478 2.337-3.116 5.92-5.298 9.66-5.766 3.895-.467 7.947.78 10.596 3.428 3.272 3.116 4.83 8.102 4.207 13.867-.468 4.674-2.18 9.192-3.895 13.555l-.468 1.402c-1.87 4.986-3.74 10.283-3.584 15.893 0 .935.156 2.026.312 2.961-4.051 6.233-3.74 15.113.78 21.97 3.34 4.89 8.873 8.679 15.407 10.608a2.337 2.337 0 00.477.79c.003 3.78-.14 7.603-.46 11.505 0 .546.357 1.091.864 1.219.11.08.236.147.383.184a50.564 50.564 0 0013.543 1.3 2.337 2.337 0 00.559.664c-.18 2.165-.388 4.327-.627 6.487-.37.11-.721.297-1.01.586a2.362 2.362 0 00-.477.7c-4.35.22-8.671 2.316-11.678 5.845-2.96 3.272-4.518 7.945-4.673 12.775 0 .311.156.623.312.779s.466.312.777.312c4.83-.155 9.35-1.87 12.777-4.675l.936-.934c3.05-3.05 4.853-7.117 5.035-11.047.149-.093.29-.2.418-.328.243-.242.419-.528.535-.832 2.19-.245 4.382-.455 6.576-.639.02.022.034.048.055.069.24.24.523.418.824.535a51.273 51.273 0 001.176 12.82 1.142 1.142 0 00-.129.512c.082.328.255.606.487.802.227.279.645.396 1.07.29.02 0 .04-.021.06-.026 3.757-.303 7.46-.443 11.138-.438a2.337 2.337 0 00.97.647c1.909 6.462 5.613 11.929 10.58 15.24 6.7 4.674 15.738 4.83 21.971.78.935.155 1.869.312 2.96.312 5.608.156 10.906-1.715 15.892-3.584l1.403-.467c4.362-1.714 8.882-3.43 13.557-3.897 5.609-.467 10.75.935 13.867 4.207 2.648 2.65 3.895 6.7 3.427 10.596-.467 3.74-2.65 7.323-5.765 9.66-2.65 2.026-4.83 2.65-7.479 2.339-5.142-.624-7.323-4.676-7.012-7.948.312-3.428 2.806-6.699 7.791-6.699 1.87 0 3.583 2.182 3.739 3.584.265 1.46-.15 2.687-1.05 3.406-.932-.58-2.197-.472-3.001.332-.935.935-.935 2.493 0 3.428s2.493.935 3.428 0c.537-.538.756-1.28.675-1.992 1.617-1.21 2.542-3.303 2.13-5.643-.312-2.337-2.804-5.453-5.92-5.453-6.389 0-9.662 4.518-9.973 8.725s2.337 9.35 8.88 10.285c4.208.623 7.013-1.247 9.194-2.805.623-.467 1.246-.935 1.87-1.559 2.648-2.648 4.363-6.076 5.142-9.504.623-4.674-.779-9.348-3.895-12.465a14.39 14.39 0 00-3.13-2.45c2.303.492 4.619.94 6.949 1.335 1.686 2.76 3.36 5.53 4.127 8.75.623 2.649.468 6.231-1.87 8.569-.311.467-.467.934-.156 1.402.156.467.779.624 1.246.469a47.175 47.175 0 0010.16-4.905c-.247 4.727-1.612 9.406-4.084 13.473-.311.468-.311.935 0 1.246s.625.47 1.092.47c3.6-.703 7.141-1.969 10.447-3.704a73.855 73.855 0 006.225 12.74c.155.312.622.467.933.467s.624-.157.78-.313c0 0 .156-.154.312-.154a73.85 73.85 0 006.184-12.629c3.272 1.73 6.774 2.985 10.332 3.592.311 0 .624 0 .935-.313.312-.467.311-.934.467-1.402-2.441-4.016-3.804-8.59-4.076-13.238a46.975 46.975 0 009.842 4.67c.311.156.778 0 1.09-.312 0 0 0-.157.312-.157.312-.467.155-1.09-.156-1.402-2.338-2.337-2.493-5.92-1.87-8.569.616-3.077 2.445-6.003 4.141-8.777 2.256-.384 4.498-.823 6.729-1.299a15.573 15.573 0 00-2.924 2.286c-2.96 3.272-4.518 7.946-3.895 12.465.624 4.362 3.116 8.414 6.7 11.219 2.18 1.558 5.142 3.427 9.193 2.804 6.544-.935 9.192-5.922 8.88-10.285-.31-4.207-3.584-8.724-9.972-8.724-3.116 0-5.608 3.116-5.92 5.453-.432 2.447.48 4.615 2.34 5.793a2.337 2.337 0 00-.004.129 2.337 2.337 0 002.338 2.336 2.337 2.337 0 002.338-2.336 2.337 2.337 0 00-2.338-2.338 2.337 2.337 0 00-1.303.396c-.995-.7-1.468-1.977-1.19-3.511.157-1.403 1.87-3.584 3.74-3.584 4.985 0 7.479 3.427 7.79 6.699s-1.87 7.168-7.011 7.947c-2.65.312-4.83-.312-7.479-2.338-3.116-2.337-5.298-5.92-5.766-9.66-.467-3.895.78-7.947 3.428-10.596 3.116-3.428 8.102-4.83 13.867-4.207 4.674.467 9.194 2.183 13.557 3.896l1.402.467c4.986 1.87 10.283 3.74 15.893 3.584.935 0 2.025-.156 2.96-.312 6.232 4.05 15.114 3.739 21.97-.78 1.247-.779 2.338-1.714 3.428-2.804 3.276-3.276 5.782-7.55 7.313-12.44a2.337 2.337 0 00.964-.64c3.731.001 7.504.145 11.354.461.354 0 .589-.096.764-.207.29-.119.547-.36.639-.728a50.577 50.577 0 001.299-13.615c.204-.109.401-.238.572-.409.025-.025.043-.054.066-.08 2.19.182 4.376.393 6.56.635.117.31.294.601.54.848.162.162.347.286.541.392.196 4.378 2.296 8.737 5.848 11.762 3.272 2.96 7.947 4.518 12.777 4.674.311 0 .621-.157.777-.312.312-.156.313-.467.469-.934-.156-4.83-1.872-9.35-4.676-12.777-3.07-3.604-7.624-5.714-12.002-5.856a2.36 2.36 0 00-.307-.377 2.351 2.351 0 00-.668-.457c-.257-2.3-.48-4.602-.67-6.908a2.337 2.337 0 00.315-.474c4.61.178 9.25-.276 13.8-1.352.157 0 .312-.157.468-.312.089-.09.174-.237.234-.428.078-.195.154-.429.232-.662a.759.759 0 00-.2-.528 135.592 135.592 0 01-.415-10.67 2.337 2.337 0 00.693-1.14c4.838-1.432 9.11-3.863 12.387-7.139 1.091-1.09 2.027-2.182 2.961-3.74 4.675-6.7 4.83-15.736.78-21.97.155-.934.312-1.87.312-2.96.156-5.61-1.714-10.907-3.584-15.893l-.469-1.402c-1.713-4.363-3.427-8.88-3.894-13.555-.467-5.61.935-10.751 4.207-13.867 2.649-2.65 6.7-3.896 10.596-3.428 3.74.467 7.323 2.647 9.66 5.764 2.026 2.648 2.648 4.831 2.336 7.48-.623 5.142-4.673 7.322-7.945 7.01-3.428-.312-6.701-2.803-6.701-7.79 0-1.869 2.181-3.584 3.584-3.74 1.563-.284 2.86.217 3.55 1.253a2.337 2.337 0 00-.59 1.552 2.337 2.337 0 002.338 2.338 2.337 2.337 0 002.336-2.338 2.337 2.337 0 00-2.119-2.326c-1.124-1.936-3.4-3.116-5.982-2.66-2.337.312-5.453 2.806-5.453 5.922 0 6.388 4.517 9.659 8.724 9.97s9.349-2.336 10.283-8.88c.468-4.207-1.246-7.168-2.804-9.194-2.805-3.74-6.855-6.076-11.217-6.699-4.675-.623-9.349.78-12.465 3.897a14.448 14.448 0 00-2.547 3.3c.494-2.29.945-4.594 1.343-6.912 2.79-1.704 5.584-3.405 8.838-4.18 2.65-.623 6.232-.467 8.569 1.87.467.311.935.468 1.402.156l.156-.156c.312-.312.469-.779.313-1.246a47.205 47.205 0 00-4.861-10.002c4.712.253 9.375 1.615 13.43 4.08.467.156.935.157 1.402-.155.312-.311.468-.624.312-1.248-.684-3.505-1.901-6.954-3.566-10.186a73.883 73.883 0 0012.604-6.173l.154-.157c.468-.467.468-1.089 0-1.556-.155-.156-.31-.313-.466-.313-3.949-2.39-8.177-4.423-12.541-6.074 1.848-3.392 3.182-7.043 3.816-10.754 0-.467-.157-.778-.469-1.09-.467-.156-.934-.156-1.246 0-4.033 2.452-8.627 3.815-13.295 4.078a47.009 47.009 0 004.727-9.998c.155-.467-.001-.936-.47-1.248-.466-.311-1.09-.155-1.401.157-2.338 2.337-5.92 2.492-8.569 1.869-3.077-.616-6.004-2.447-8.777-4.143-.393-2.302-.84-4.59-1.328-6.865a14.322 14.322 0 002.314 2.906c3.272 2.96 7.947 4.518 12.465 3.895 3.584-.468 7.012-2.182 9.66-4.83.624-.468 1.09-1.09 1.247-2.026 1.558-2.181 3.427-5.14 2.804-9.191-.935-6.544-5.92-9.193-10.283-8.881-4.207.312-8.724 3.582-8.724 9.97 0 3.117 3.116 5.61 5.453 5.923 2.345.413 4.44-.398 5.648-2.102a2.337 2.337 0 00.584.074 2.337 2.337 0 002.336-2.336 2.337 2.337 0 00-2.336-2.338 2.337 2.337 0 00-2.338 2.338 2.337 2.337 0 00.166.862c-.677 1.08-1.996 1.61-3.594 1.32-1.402-.156-3.584-1.87-3.584-3.74 0-4.986 3.428-7.48 6.7-7.791s7.168 1.87 7.947 7.011c.312 2.65-.312 4.83-2.338 7.479-2.337 3.116-5.92 5.298-9.66 5.765-3.895.468-7.945-.778-10.594-3.427-3.272-3.116-4.83-8.102-4.207-13.867.467-4.675 2.18-9.192 3.894-13.555l.467-1.403c1.87-4.985 3.74-10.283 3.584-15.893 0-.934-.155-2.026-.31-2.96 4.05-6.233 3.739-15.113-.78-21.97-3.261-4.775-8.614-8.506-14.949-10.476a2.337 2.337 0 00-.47-.768c-.007-3.83.136-7.706.46-11.66 0-.623-.466-1.246-1.09-1.246-.158 0-.316.03-.464.086a50.585 50.585 0 00-13.158-1.235 2.337 2.337 0 00-.502-.699c.182-2.217.393-4.432.637-6.644.317-.116.615-.294.867-.545.175-.176.306-.377.416-.588a16.746 16.746 0 0010.959-4.865c.311-.312.623-.625.78-1.092 2.96-3.272 4.517-7.945 4.673-12.775 0-.312-.157-.624-.313-.78s-.465-.312-.777-.312c-4.83.156-9.35 1.87-12.777 4.674-3.58 3.05-5.686 7.568-5.851 11.92-.192.105-.376.23-.538.39a2.354 2.354 0 00-.466.686c-2.257.251-4.516.468-6.778.654a2.38 2.38 0 00-.74-.47 51.312 51.312 0 00-1.217-12.826.888.888 0 00.164-.508c-.156-.623-.623-1.092-1.246-1.092-3.884.324-7.71.469-11.508.463a2.337 2.337 0 00-1.215-.713c-1.886-6.567-5.62-12.134-10.648-15.486-6.7-4.674-15.736-4.83-21.969-.78-.935-.155-1.87-.31-2.96-.31-5.61-.156-10.908 1.712-15.894 3.582l-1.402.469c-4.363 1.714-8.88 3.427-13.555 3.894-5.61.468-10.75-.935-13.867-4.207-2.649-2.648-3.895-6.698-3.428-10.594.468-3.739 2.648-7.325 5.764-9.662 2.649-2.025 4.83-2.647 7.479-2.336 5.141.624 7.323 4.674 7.011 7.946-.311 3.428-2.803 6.7-7.789 6.7-1.87 0-3.584-2.18-3.74-3.583-.267-1.469.157-2.705 1.066-3.422a2.337 2.337 0 001.582.617 2.337 2.337 0 002.338-2.338 2.337 2.337 0 00-2.338-2.336 2.337 2.337 0 00-2.318 2.059c-1.845 1.153-2.955 3.373-2.512 5.887.312 2.337 2.806 5.453 5.922 5.453 6.388 0 9.66-4.518 9.97-8.725s-2.336-9.348-8.88-10.283c-4.207-.467-7.168 1.247-9.193 2.805-3.74 2.805-6.076 6.856-6.7 11.219-.623 4.674.779 9.347 3.895 12.463 1.027 1.072 2.239 1.971 3.588 2.703a165.713 165.713 0 00-7.578-1.459c-1.682-2.752-3.347-5.512-4.112-8.723-.623-2.648-.468-6.23 1.87-8.568.311-.468.467-.935.156-1.402-.156-.468-.779-.625-1.246-.47a47.22 47.22 0 00-10.166 4.97c.215-4.802 1.58-9.564 4.09-13.693.311-.468.311-.935 0-1.246s-.625-.47-1.092-.47c-3.57.697-7.083 1.948-10.365 3.661a73.844 73.844 0 00-6.15-12.541c-.156-.312-.625-.467-.936-.467zm0 3.115a81.341 81.341 0 015.098 11.006 36.5 36.5 0 00-5.252 3.797 38.078 38.078 0 00-5.045-3.701c1.428-3.81 3.202-7.528 5.199-11.102zm-15.736 8.883a35.448 35.448 0 017.893 3.088 76.19 76.19 0 00-1.504 4.857c0 .468.155.935.466 1.246 3.117 2.338 5.922 5.3 7.948 8.727.156.312.622.467.933.467s.624-.155.78-.31l.156-.157c2.025-3.428 4.675-6.39 7.947-8.727.468-.311.623-.778.467-1.246a76.189 76.189 0 00-1.496-4.832 34.652 34.652 0 017.885-3.113c-2.168 4.335-3.254 9.204-3.233 14.084-4.101 2.936-7.753 6.51-10.689 10.555-.605-.006-1.21-.022-1.816-.022-.657 0-1.311.016-1.967.024a45.365 45.365 0 00-10.537-10.543c.005-4.84-1.08-9.71-3.232-14.098zm9.828 4.205a33.75 33.75 0 015.131 3.897c.467.311 1.09.311 1.557 0a37.763 37.763 0 015.095-3.828 84.159 84.159 0 011.137 3.515 32.026 32.026 0 00-7.012 7.48 32.02 32.02 0 00-7.01-7.48c.326-1.203.7-2.396 1.102-3.584zm-16.37 6.858a49.134 49.134 0 017.523 4.2 29.157 29.157 0 01-2.293 10.218c-2.739.277-5.463.621-8.17 1.03 1.401-2.363 2.791-4.985 3.406-7.814.623-2.648.468-5.453-.467-7.634zm44.56 0c-.779 2.18-1.09 4.986-.467 7.634.615 2.829 2.005 5.451 3.407 7.815-2.817-.427-5.651-.784-8.5-1.067-1.375-3.182-2.13-6.62-2.276-10.096a42.833 42.833 0 017.836-4.287zm-9.666 5.625a30.794 30.794 0 001.996 8.57 168.955 168.955 0 00-10.03-.574 44.32 44.32 0 018.034-7.997zm-25.23.125c2.998 2.286 5.73 4.915 8.033 7.87-3.357.09-6.696.288-10.018.575a29.95 29.95 0 001.985-8.445zm103.88 3.19c3.813-.11 7.793.972 11.104 3.212 4.46 3.051 7.859 8.05 9.664 13.992a2.337 2.337 0 00-.133.129 136.099 136.099 0 01-9.709-.602 2.37 2.37 0 00-.6-1.055c-.499-.5-1.177-.724-1.843-.689-.405-.79-.992-1.677-1.74-2.426-1.15-1.149-2.563-1.629-3.875-1.576a11.253 11.253 0 00-1.112-2.943c-1.713-2.96-4.674-5.297-8.257-6.543 1.986-.935 4.214-1.432 6.502-1.498zm-183.98.224c2.687-.078 5.33.407 7.649 1.43-3.584 1.246-6.544 3.584-8.258 6.544-.48.865-.828 1.809-1.067 2.785-1.28.003-2.647.602-3.763 1.578-.746.746-1.264 1.63-1.672 2.418a2.417 2.417 0 00-1.756.698 2.366 2.366 0 00-.557.904c-3.282.326-6.581.518-9.91.602a2.337 2.337 0 00-.184-.143c1.83-5.801 5.181-10.675 9.56-13.672 2.98-2.016 6.504-3.045 9.958-3.144zm171.09 2.365h.623c-3.162 3.162-4.782 7.556-4.363 11.6a29.024 29.024 0 00-10.97 3.006 164.198 164.198 0 00-19.011-6.545c.99.02 1.999-.015 3.027-.115 4.986-.468 9.66-2.337 14.178-4.051l1.403-.467c4.83-1.714 9.971-3.584 15.113-3.428zm-157.68.156h.623c5.298-.156 10.283 1.558 15.113 3.428l1.402.467c4.519 1.713 9.194 3.583 14.18 4.05.95.093 1.877.128 2.788.12A164.174 164.174 0 0086.48-3.854a29.03 29.03 0 00-11.348-3.135c.303-3.953-1.308-8.2-4.387-11.279zm-2.805.156c.312.312.78.622 1.092.934 3.584 3.272 4.985 8.257 3.582 12.309-.779 2.181-2.648 4.051-4.83 4.986-2.025.935-4.05.935-5.764.156-1.87-.779-3.273-2.338-3.896-4.52-.935-2.492-.624-5.45.623-7.632.623-.935 1.248-1.715 1.871-2.338 2.026-2.025 4.674-3.115 7.322-3.894zm164.54.31c3.428.78 7.012 2.65 9.038 6.077 1.246 2.181 1.402 5.142.623 7.635-.78 2.181-2.181 3.74-3.895 4.52-1.714.778-3.74.622-5.766-.157-2.18-.935-4.05-2.805-4.83-4.986-1.402-3.895-.154-8.724 3.118-11.996.155-.156.155-.156.623-.156.311-.312.778-.624 1.09-.936zm-82.268 3.429c21.906.077 43.114 4.34 62.72 12.436.262.386.716.541 1.113.472a162.437 162.437 0 0126.836 14.416c.151.19.35.33.582.385a165.654 165.654 0 0124.828 20.438c30.85 31.006 47.99 72.296 47.99 116.08 0 43.938-17.138 85.072-48.145 116.08s-72.297 48.145-116.08 48.145c-32.851 0-64.132-9.496-90.787-27.246-.046-.03-.086-.066-.135-.088a165.45 165.45 0 01-25.156-20.654c-30.85-31.006-47.988-72.297-47.988-116.08 0-43.938 16.982-85.072 47.988-116.08 31.006-31.006 72.296-47.989 116.23-48.301zm94.264 6.513c.709-.002 1.506.423 2.184.965a7.105 7.105 0 011.346 1.818c-.069.092-.13.187-.184.286a147.947 147.947 0 01-3.521-.504c.15-.86.209-1.718.175-2.565zm-189.14.012c-.045.817-.008 1.64.114 2.451-1.077.167-2.152.326-3.229.467-.058-.091-.13-.174-.201-.258a7.18 7.18 0 011.281-1.707c.632-.505 1.365-.902 2.035-.953zm94.723.33c-42.069 0-81.643 16.361-111.4 46.121-29.76 29.76-46.12 69.334-46.12 111.4s16.36 81.645 46.12 111.4c29.76 29.76 69.334 46.121 111.4 46.121s81.645-16.361 111.4-46.121c29.916-29.76 46.277-69.336 46.121-111.4 0-42.069-16.36-81.643-46.12-111.4-29.76-29.76-69.337-46.121-111.4-46.121zm155.03 2.182c-.311 3.895-1.713 7.634-4.05 10.283-2.53 3.092-6.327 4.902-10.02 5.115a2.344 2.344 0 00-.42-.596 2.368 2.368 0 00-.748-.5c.213-3.718 2.124-7.563 4.955-10.252 2.804-2.337 6.388-3.74 10.283-4.05zM-5.13-5.18c3.896.311 7.479 1.714 10.127 4.207C8.09 1.558 9.9 5.353 10.113 9.046c-.214.11-.419.244-.596.422a2.371 2.371 0 00-.508.761c-3.714-.217-7.542-2.155-10.088-5.125-2.337-2.804-3.74-6.388-4.05-10.283zm79.904.351c3.108.191 6.117.932 8.96 2.15a164.726 164.726 0 00-25.45 13.858c-2.332.163-4.668.285-7.005.385a2.35 2.35 0 00-.473-.696 2.346 2.346 0 00-.567-.406c-.629-4.469-.515-8.3.352-11.707.48-.08.94-.3 1.305-.664.199-.2.348-.43.463-.674 1.22-.155 2.44-.331 3.664-.517a9.221 9.221 0 004.91 5.554c2.337.935 4.987.935 7.48-.156 2.805-1.246 5.142-3.584 6.077-6.232.107-.294.203-.593.285-.895zm150.36.17c.059.19.114.382.182.569 1.09 2.804 3.272 4.986 6.076 6.232 2.493 1.09 5.142 1.091 7.479.156 2.242-.896 3.902-2.946 4.86-5.449 1.342.21 2.686.404 4.03.576.114.241.262.47.46.666.321.323.719.525 1.138.625.89 3.468 1.004 7.37.34 11.941a2.337 2.337 0 00-.697.756c-2.393-.1-4.784-.223-7.17-.39-.064 0-.125.025-.188.035A164.69 164.69 0 00216.564-2.6a26.842 26.842 0 018.57-2.059zm-75.076 2.44c40.666 0 78.997 15.892 107.67 44.56 28.67 28.826 44.561 66.999 44.561 107.66S286.397 229 257.73 257.673c-28.826 28.67-67 44.562-107.67 44.562s-78.996-15.892-107.66-44.561c-28.67-28.825-44.562-67-44.562-107.67S13.73 71.008 42.398 42.343c28.825-28.67 66.998-44.561 107.66-44.561zm-101.76.095c.057.073.108.149.174.215.04.04.086.066.127.102-.97 3.594-1.13 7.591-.515 12.199-.255.115-.495.27-.702.476-.248.249-.426.54-.543.854-3.028.077-6.06.085-9.091.053a2.337 2.337 0 00-1.323-1.102c-.263-2.9-.252-5.61.051-8.219A34.24 34.24 0 0136.798.25a2.337 2.337 0 001.946-1.761c3.194-.098 6.375-.297 9.554-.612zm203.52.01c3.168.315 6.35.51 9.559.606A2.337 2.337 0 00263.031.19c.12.696.227 1.398.305 2.11.314 2.697.31 5.507.018 8.52a2.337 2.337 0 00-.887.8c-3.114.034-6.228.022-9.338-.059a2.337 2.337 0 00-1.246-1.152c.612-4.57.46-8.54-.486-12.111.086-.065.175-.127.253-.205.064-.064.113-.136.168-.205zm-227.8.268c3.436.26 6.831.389 10.201.396a2.337 2.337 0 00.34.725 34.587 34.587 0 00-.422 2.867c-.312 3.067-.254 6.08.03 8.985a2.337 2.337 0 00-.483.578c-3.28-.089-6.56-.24-9.838-.461a2.36 2.36 0 00-.304-.375 2.348 2.348 0 00-.653-.451 50.604 50.604 0 011.13-12.264zm251.97.008a47.622 47.622 0 011.141 12.309 2.34 2.34 0 00-.553.398c-.066.067-.119.141-.176.213-3.352.228-6.707.382-10.064.471a2.337 2.337 0 00-.974-.797c.267-2.908.308-5.905-.004-8.924a36.032 36.032 0 00-.276-2.054 2.337 2.337 0 00.817-1.227c3.32-.01 6.679-.137 10.09-.389zM13.268 12.491c2.065.226 4.132.424 6.202.6.093.444.305.867.644 1.207.303.302.674.496 1.065.603.29 2.401.767 4.78 1.38 7.129-.09.067-.182.131-.263.213-.125.124-.23.26-.32.404a48.923 48.923 0 00-7.069-1.418 2.337 2.337 0 00-1.586-1.687c-.18-2.151-.384-4.302-.619-6.448.084-.063.17-.123.246-.199.124-.124.23-.26.32-.404zm273.59.014c.09.138.192.27.313.39.12.12.252.223.39.313a251.555 251.555 0 00-.603 6.29 2.337 2.337 0 00-1.717 1.62c-2.426.29-4.83.769-7.205 1.389-.067-.09-.131-.183-.213-.264a2.352 2.352 0 00-.404-.32 48.9 48.9 0 001.406-6.99 2.383 2.383 0 001.18-.635c.336-.337.546-.756.64-1.196 2.073-.174 4.145-.372 6.213-.597zm-262.78.943c3.162.21 6.327.344 9.493.434A2.337 2.337 0 0034.678 15c.617 3.704 1.526 7.153 2.434 10.244-3.611-.25-7.203-.834-10.723-1.6a2.393 2.393 0 00-.672-1.402 2.384 2.384 0 00-1.205-.645 48.67 48.67 0 01-1.328-7.015c.123-.084.242-.177.351-.285.247-.247.427-.54.543-.85zm251.96.01c.117.307.295.595.54.84.07.071.152.127.23.187a49.446 49.446 0 01-1.418 7.176c-.365.111-.71.297-.994.582a2.405 2.405 0 00-.69 1.594c-3.762.81-7.607 1.41-11.467 1.619.968-3.071 1.905-6.534 2.54-10.252a2.337 2.337 0 001.761-1.317c3.167-.088 6.335-.222 9.498-.43zm-30.688.125c1.219.069 2.437.13 3.657.181a2.337 2.337 0 00.109.166c-.137.655-.31 1.344-.475 2.026a166.83 166.83 0 00-3.29-2.373zm-190.6.01a166.62 166.62 0 00-3.412 2.459c-.153-.632-.308-1.265-.437-1.873.113-.129.208-.267.289-.412 1.187-.05 2.374-.108 3.56-.174zm198.2.316c3.13.082 6.264.092 9.399.057a2.337 2.337 0 00.49.642c-.551 3.277-1.412 6.82-2.598 10.758a168.383 168.383 0 00-9.752-8.015c.214-.83.402-1.637.577-2.432a2.337 2.337 0 001.884-1.01zm-205.88.008v.002c.088.134.19.262.307.379.422.421.97.642 1.531.683.179.809.368 1.625.586 2.47a168.382 168.382 0 00-9.74 8.02c-.07-.032-.147-.044-.225-.062-1.158-3.86-2.002-7.344-2.548-10.566a2.337 2.337 0 00.787-.877c3.102.037 6.204.03 9.302-.049zM9.12 22.9c.495.004.99.018 1.486.037a2.337 2.337 0 00.681.748c.223 3.286.373 6.573.463 9.862a2.34 2.34 0 00-.521.38c-.14.14-.25.295-.348.458-2.883-.26-5.855-.298-8.846.011-.821.084-1.63.203-2.431.34a2.337 2.337 0 00-.85-.521 142.706 142.706 0 00-.388-10.174A47.573 47.573 0 019.12 22.9zm281.94.065c3.647-.02 7.29.361 10.841 1.12-.253 3.395-.379 6.75-.386 10.08a2.337 2.337 0 00-.942.514 34.599 34.599 0 00-2.963-.44c-2.892-.293-5.737-.263-8.488-.02-.073-.101-.146-.201-.236-.292a2.341 2.341 0 00-.528-.384c.088-3.286.24-6.57.46-9.852a2.337 2.337 0 00.656-.691c.528-.02 1.057-.033 1.586-.036zm-276.61.279c2.448.292 4.875.775 7.261 1.432.111.364.298.71.582.994a2.405 2.405 0 001.594.69c.785 3.643 1.377 7.364 1.602 11.101-3.074-.962-6.531-1.89-10.24-2.514a2.37 2.37 0 00-.59-1.02 2.341 2.341 0 00-.567-.403c-.09-3.217-.225-6.434-.437-9.647a2.337 2.337 0 00.795-.633zm271.25.04a2.337 2.337 0 00.913.661c-.208 3.163-.342 6.33-.431 9.496a2.36 2.36 0 00-.725.486c-.243.244-.42.53-.537.836-3.643.598-7.047 1.476-10.105 2.368.248-3.634.835-7.248 1.606-10.79a2.393 2.393 0 001.402-.671c.284-.284.47-.627.582-.99a48.664 48.664 0 017.295-1.395zM26.03 25.984c3.794.813 7.588 1.368 11.382 1.608a170.91 170.91 0 00-4.994 4.78 170.836 170.836 0 00-4.78 4.995 74.459 74.459 0 00-1.608-11.383zm248.05 0c-.814 3.794-1.369 7.587-1.608 11.381a170.975 170.975 0 00-4.781-4.992 170.773 170.773 0 00-4.992-4.78 74.458 74.458 0 0011.38-1.609zm18.046 10.361c1.78-.039 3.495.038 5.17.233.866.094 1.716.23 2.557.386a2.337 2.337 0 001.72 1.729c.1 3.223.302 6.432.622 9.64a2.337 2.337 0 00-.127.114c-3.666-1.023-7.75-1.201-12.475-.563a2.345 2.345 0 00-.4-.554 2.366 2.366 0 00-.848-.54c-.078-3-.09-6.006-.06-9.011.214-.11.419-.244.597-.422.251-.252.429-.55.545-.867a43.901 43.901 0 012.699-.145zM7.516 36.5c1.06.024 2.154.101 3.266.207.113.234.255.457.447.649.178.177.382.312.596.422.031 3.032.023 6.065-.055 9.094a2.337 2.337 0 00-1.312 1.314c-4.604-.616-8.598-.456-12.19.508a2.337 2.337 0 00-.2-.227c.328-3.254.533-6.523.63-9.82a2.337 2.337 0 001.541-1.61 37.49 37.49 0 017.277-.537zm277.68.538c.078.11.16.22.258.318.19.19.41.332.64.445-.032 3.074-.024 6.147.056 9.217a2.358 2.358 0 00-.385.31 2.385 2.385 0 00-.668 1.374c-.846.186-1.7.38-2.586.61a168.475 168.475 0 00-8.02-9.718c3.915-1.17 7.444-2.02 10.705-2.556zm-270.45.207c3.252.551 6.767 1.407 10.668 2.582a168.343 168.343 0 00-8.015 9.75c-.83-.214-1.637-.4-2.432-.575a2.337 2.337 0 00-.857-1.77c.084-3.168.098-6.34.062-9.513.173-.1.338-.216.485-.363.034-.035.058-.075.09-.111zm-18.506.732a2.337 2.337 0 00.13.133 136.094 136.094 0 01-.608 9.783 2.337 2.337 0 00-1.672 2.24 2.337 2.337 0 00.002.063c-.806.368-1.725.927-2.494 1.806-1.15 1.15-1.63 2.563-1.576 3.875a11.25 11.25 0 00-2.944 1.112c-2.96 1.714-5.296 4.674-6.543 8.257-2.493-5.297-1.87-12.31 1.713-17.607 3.052-4.46 8.05-7.856 13.992-9.662zm307.65.002c5.727 1.84 10.537 5.17 13.504 9.506 3.584 5.297 4.05 12.308 1.713 17.605-1.246-3.584-3.584-6.544-6.545-8.258a11.138 11.138 0 00-2.49-.994c.132-1.387-.485-2.918-1.56-4.147-.771-.77-1.691-1.3-2.498-1.714a2.337 2.337 0 00-1.516-2.034c-.33-3.3-.523-6.617-.607-9.964zm-8.972 11.803c2.331 0 4.47.264 6.469.781a2.337 2.337 0 001.244 1.656c.16 1.266.341 2.534.535 3.803-.035.012-.072.02-.108.031-2.648.78-4.673 2.65-5.763 4.987-.935 2.337-.937 4.985.154 7.478 1.247 2.805 3.584 5.141 6.232 6.076.387.13.784.23 1.184.319a26.891 26.891 0 01-2.16 8.695 164.742 164.742 0 00-13.836-25.391c.003-.047.012-.089.012-.139-.16-2.281-.28-4.566-.38-6.853.25-.115.487-.265.69-.469.17-.17.298-.363.406-.566 1.88-.265 3.653-.409 5.32-.409zm-289.73.156c1.727 0 3.561.146 5.515.43a2.337 2.337 0 00.91.78c-.1 2.365-.223 4.728-.388 7.087a164.692 164.692 0 00-13.857 25.45 26.87 26.87 0 01-2.133-8.704c.242-.07.484-.144.72-.23 2.805-1.091 4.987-3.272 6.233-6.077 1.09-2.493 1.091-5.141.156-7.478-.88-2.201-2.872-3.841-5.312-4.807.005-.01.01-.013.016-.023.222-1.414.421-2.829.601-4.244a2.337 2.337 0 001.033-1.393c2.01-.523 4.16-.79 6.506-.79zm280.69.914c.13.115.271.212.42.293.05 1.191.11 2.381.177 3.57-.807-1.15-1.63-2.293-2.468-3.425.63-.153 1.263-.308 1.87-.438zm-271.9.098c.653.136 1.341.31 2.021.475a167.504 167.504 0 00-2.2 3.043c.064-1.17.122-2.34.171-3.512a2.337 2.337 0 00.008-.006zm291.2.977c.76.398 1.311.86 1.773 1.322.547.683.974 1.488.965 2.201a12.072 12.072 0 00-2.447.047c-.177-1.14-.348-2.278-.496-3.418a2.337 2.337 0 00.205-.152zm-310.07.142a2.337 2.337 0 00.152.094c-.156 1.2-.329 2.4-.515 3.601a12.14 12.14 0 00-2.565-.175c-.002-.709.423-1.506.965-2.184.486-.486 1.14-.892 1.963-1.336zm-2.094 5.537c1 .021 2 .18 2.936.473 2.181.779 3.74 2.183 4.52 3.896.778 1.714.622 3.739-.157 5.764-.935 2.181-2.805 4.051-4.986 4.83-4.052 1.403-9.037.002-12.31-3.582-.311-.311-.623-.78-.935-1.092.779-3.583 2.649-7.167 6.232-9.193 1.364-.779 3.032-1.13 4.7-1.096zm314.22.086c1.668-.027 3.334.387 4.697 1.166 3.428 1.87 5.3 5.61 6.078 9.037-.311.312-.624.78-.935 1.092-2.823 3.092-6.922 4.554-10.596 3.998a1.123 1.123 0 00-.467-.103c-.017 0-.03.007-.047.008a9.537 9.537 0 01-1.199-.32c-2.181-.78-4.052-2.65-4.986-4.83-.935-2.026-.936-4.05-.157-5.765.312-.779.78-1.402 1.403-2.025.935-.779 2.025-1.403 3.271-1.715a8.799 8.799 0 012.938-.543zm10.93 13.008v.623c.156 5.298-1.558 10.283-3.428 15.113l-.466 1.403c-1.714 4.518-3.584 9.193-4.051 14.18a26.253 26.253 0 00-.121 2.238 164.114 164.114 0 00-6.225-17.908 29.023 29.023 0 003.152-11.15c3.869.174 7.982-1.34 10.984-4.342zm-336.55.313c3.124 3.124 7.45 4.738 11.453 4.373a29.02 29.02 0 003.117 11.049 164.167 164.167 0 00-6.445 18.703c0-.928-.056-1.866-.18-2.809-.467-4.986-2.337-9.66-4.05-14.178l-.467-1.402c-1.714-4.83-3.584-9.972-3.428-15.113zm332.91 53.602c2.371 1.407 5.003 2.806 7.844 3.423 2.649.624 5.453.469 7.635-.466a49.167 49.167 0 01-4.203 7.527 29.176 29.176 0 01-10.227-2.238 167.114 167.114 0 00-1.05-8.246zm-329.02.345a167.138 167.138 0 00-1.021 8.164c-3.25 1.407-6.767 2.163-10.318 2.288a42.788 42.788 0 01-4.082-7.53c2.18.78 4.986 1.092 7.634.469 2.818-.612 5.431-1.994 7.787-3.39zm355.4 9.155a35.458 35.458 0 01-3.148 8.004 77.865 77.865 0 00-4.641-1.46c-.467 0-.934.156-1.246.467-2.337 3.117-5.299 5.922-8.727 7.948-.311.155-.466.622-.466.933s.155.78.466.936c3.428 2.025 6.39 4.675 8.727 7.947.312.468.779.623 1.246.467a76.221 76.221 0 004.766-1.475 34.613 34.613 0 013.023 7.707c-4.321-2.16-9.174-3.244-14.039-3.23-2.917-4.041-6.453-7.641-10.449-10.541.008-.604.025-1.206.027-1.81 0-.657-.016-1.31-.023-1.966a40.553 40.553 0 005.477-4.578 46.971 46.971 0 005.14-6.115c4.765-.029 9.55-1.116 13.867-3.234zm-381.89.312c4.368 2.184 9.278 3.269 14.195 3.23 2.915 4.04 6.45 7.637 10.443 10.536-.006.605-.021 1.208-.021 1.814 0 .657.015 1.313.023 1.969A45.378 45.378 0 00-27 162.666c-4.804.012-9.633 1.098-13.986 3.233a35.436 35.436 0 013.16-8.023 76.237 76.237 0 004.785 1.48c.468 0 .935-.155 1.246-.466 2.338-3.117 5.3-5.922 8.727-7.948l.156-.156c.468-.312.468-1.09 0-1.557-.156-.155-.313-.312-.468-.312-3.272-2.026-6.233-4.675-8.415-7.791-.311-.468-.778-.623-1.246-.467-1.652.45-3.286.958-4.9 1.518a34.625 34.625 0 01-3.045-7.75zm356.78.887a30.007 30.007 0 008.441 1.937c-2.285 2.994-4.912 5.721-7.865 8.022a168.968 168.968 0 00-.576-9.96zm-331.54.246c-.284 3.322-.48 6.661-.566 10.02a44.333 44.333 0 01-7.99-8.031c2.92-.253 5.809-.914 8.556-1.989zm-17.455 7.437a32.02 32.02 0 007.48 7.01c-1.713 1.247-3.273 2.494-4.675 3.897-1.091.935-2.026 2.024-2.805 3.115a56.836 56.836 0 01-3.51-1.059 33.71 33.71 0 013.823-5.017 1.416 1.416 0 000-1.559 37.74 37.74 0 01-3.913-5.22 84.165 84.165 0 013.6-1.167zm366.47 0c1.146.302 2.268.648 3.38 1.016a33.728 33.728 0 01-3.849 5.06 1.416 1.416 0 000 1.56 37.733 37.733 0 013.938 5.265c-1.15.397-2.305.775-3.469 1.121a32.026 32.026 0 00-7.48-7.012c2.804-1.87 5.454-4.205 7.48-7.01zm5.377 1.713c3.906 1.444 7.638 3.255 11.293 5.297a81.313 81.313 0 01-11.055 5.115 36.548 36.548 0 00-3.902-5.425 38.074 38.074 0 003.664-4.987zm-377.43.172a36.462 36.462 0 003.719 5.125 38.08 38.08 0 00-3.793 5.194c-3.802-1.427-7.444-3.2-11.01-5.194a81.353 81.353 0 0111.084-5.125zm355.15 9.694a44.327 44.327 0 017.889 7.888 30.819 30.819 0 00-8.479 1.946c.287-3.26.49-6.538.59-9.834zm-332.66.168c.093 3.36.291 6.703.582 10.027a29.943 29.943 0 00-8.459-1.99c2.288-3 4.92-5.733 7.877-8.038zm342.11 9.859a42.796 42.796 0 014.188 7.686c-2.182-.935-4.986-1.09-7.635-.467-2.862.622-5.512 2.036-7.897 3.455.43-2.793.794-5.604 1.084-8.43 3.235-1.383 6.73-2.126 10.26-2.244zm-351.33.01c3.417.165 6.811.925 10 2.281.286 2.852.647 5.689 1.076 8.508-2.37-1.407-5.002-2.806-7.842-3.424-2.648-.623-5.453-.468-7.634.467a49.124 49.124 0 014.4-7.832zm335.77 30.238c-.005.878.033 1.772.121 2.68.468 4.986 2.337 9.659 4.05 14.178l.468 1.402c1.714 4.83 3.583 9.972 3.427 15.113v.623c-3.124-3.124-7.45-4.738-11.453-4.373a29.02 29.02 0 00-3.06-10.934 165.675 165.675 0 006.447-18.689zm-320.42.36a164.177 164.177 0 006.42 18.544 29.026 29.026 0 00-3.045 11.08c-3.955-.268-8.203 1.244-11.283 4.325l-.156.156v-.623c-.156-5.298 1.558-10.283 3.427-15.113l.467-1.403c1.714-4.518 3.584-9.193 4.051-14.18.092-.945.128-1.874.12-2.787zm312.76 21.165a26.882 26.882 0 012.103 8.506c-.238.07-.477.141-.71.227-2.805 1.09-4.986 3.271-6.233 6.076-1.09 2.493-1.09 5.141-.156 7.479.915 2.286 3.026 3.972 5.598 4.92a145.768 145.768 0 00-.588 4.136 2.357 2.357 0 00-.647.45c-.322.322-.525.719-.625 1.138-3.44.883-7.309.998-11.834.352a2.355 2.355 0 00-.318-.4 2.34 2.34 0 00-.547-.395c.1-2.416.224-4.83.392-7.24 0-.06-.023-.114-.03-.172a165.874 165.874 0 0013.595-25.076zm-305.12.215a164.686 164.686 0 0013.918 25.453c.155 2.25.273 4.503.37 6.758a2.337 2.337 0 00-1.169 1.014c-4.508.644-8.366.531-11.797-.342-.08-.48-.3-.94-.664-1.305a2.376 2.376 0 00-.818-.533c-.154-1.215-.33-2.431-.514-3.648.028-.01.058-.016.086-.026 2.649-.779 4.675-2.649 5.766-4.986.934-2.337.934-4.986-.157-7.479-1.246-2.804-3.583-5.143-6.232-6.078a11.734 11.734 0 00-.877-.252 26.86 26.86 0 012.088-8.576zm-5.475 10.162c1.089.01 2.16.187 3.172.537 2.182.78 4.052 2.649 4.987 4.83.934 2.026.935 4.05.156 5.764-.78 1.87-2.338 3.273-4.52 3.897-2.493.934-5.451.623-7.632-.623-3.428-1.87-5.3-5.61-6.079-9.038.312-.311.624-.622.78-1.246 2.454-2.687 5.872-4.15 9.136-4.12zm315.78.469c3.265-.03 6.683 1.431 9.137 4.12.312.31.624.777.936 1.089-.78 3.428-2.649 7.011-6.077 9.037-2.18 1.246-5.141 1.402-7.634.623-2.182-.779-3.74-2.18-4.52-3.894s-.623-3.74.156-5.766c.468-1.09 1.247-2.18 2.026-2.96.935-.934 1.87-1.558 2.804-1.714a9.958 9.958 0 013.172-.535zm11.631 7.39c2.493 5.298 1.87 12.31-1.714 17.608-3.048 4.453-8.036 7.849-13.967 9.656.084-3.236.275-6.457.59-9.676.392-.106.764-.3 1.068-.604a2.414 2.414 0 00.697-1.673 8.41 8.41 0 002.264-1.6s.154-.155.154-.31c1.205-1.206 1.677-2.701 1.567-4.067.975-.239 1.919-.589 2.796-1.076 2.96-1.714 5.299-4.674 6.545-8.258zm-338.58.313c1.247 3.584 3.585 6.544 6.545 8.258.822.456 1.713.793 2.637 1.031-.06 1.335.544 2.783 1.57 3.955.746.746 1.63 1.262 2.418 1.67-.01.638.22 1.28.698 1.758.264.264.581.446.918.56.321 3.28.512 6.577.591 9.903a2.337 2.337 0 01-.002.002 2.337 2.337 0 00-.015.02c-5.79-1.832-10.653-5.179-13.645-9.551-3.584-5.298-4.052-12.308-1.715-17.605zm324.51 9.197c.856.139 1.71.188 2.553.145.074.747-.365 1.614-.95 2.344a7.105 7.105 0 01-1.818 1.345 2.356 2.356 0 00-.306-.193c.157-1.212.333-2.426.521-3.64zm-310.7.368c.173 1.114.34 2.23.485 3.345-.099.061-.19.137-.28.213a7.178 7.178 0 01-1.707-1.281c-.545-.682-.97-1.484-.964-2.195.82.057 1.648.03 2.466-.082zm291.82.695c-.069 1.228-.13 2.457-.181 3.687-.092.051-.179.107-.264.17-.644-.135-1.319-.302-1.988-.465a167.368 167.368 0 002.433-3.392zm-272.51.6c.699.987 1.408 1.967 2.13 2.94-.663.162-1.329.325-1.966.46a2.337 2.337 0 01-.002-.002c-.046-1.134-.1-2.266-.162-3.399zm268.59 4.771c.865.224 1.699.417 2.526.6.041.56.262 1.11.683 1.53.118.119.246.221.381.31-.078 3.097-.085 6.199-.049 9.3a2.337 2.337 0 00-.533.377c-3.292-.539-6.857-1.393-10.816-2.578a168.974 168.974 0 007.809-9.539zm-265.06.014a168.42 168.42 0 008.022 9.738c-.017.035-.03.07-.043.107-3.866 1.156-7.355 2-10.582 2.54a2.337 2.337 0 00-.24-.295 2.345 2.345 0 00-.33-.268c.037-3.25.021-6.499-.067-9.744a2.337 2.337 0 00.7-1.477c.83-.182 1.671-.377 2.54-.601zm-19.258.9c3.616.975 7.638 1.134 12.28.506a2.337 2.337 0 001.406 1.225c.075 2.982.084 5.969.054 8.955a2.37 2.37 0 00-.754.504 2.36 2.36 0 00-.54.85c-2.83.245-5.475.224-8.028-.073a34.192 34.192 0 01-2.396-.356 2.337 2.337 0 00-1.88-1.79 140.13 140.13 0 00-.587-9.413c.121-.082.237-.174.344-.281.039-.039.065-.086.101-.127zm303.63 0c.036.041.063.088.102.127.06.06.127.104.191.156-.311 3.171-.503 6.36-.595 9.573a2.337 2.337 0 00-1.631 1.457c-.767.137-1.541.257-2.328.343-2.677.312-5.463.311-8.448.026a2.337 2.337 0 00-.714-.737c-.037-3.086-.03-6.17.046-9.254.255-.115.495-.267.702-.474.206-.207.36-.447.476-.701 4.607.615 8.605.453 12.2-.516zm-27.408 10.926c3.129.98 6.658 1.922 10.441 2.545a2.337 2.337 0 001.28 1.55c.09 3.193.227 6.386.44 9.575a2.337 2.337 0 00-.929.666 49.494 49.494 0 01-7.318-1.484 2.362 2.362 0 00-.555-.903 2.417 2.417 0 00-1.752-.697c-.795-3.693-1.39-7.465-1.607-11.252zm-246.98.09a170.901 170.901 0 004.936 5.158c1.58 1.58 3.194 3.116 4.826 4.625-3.822.24-7.713.794-11.37 1.607.813-3.797 1.37-7.593 1.608-11.39zm-2.164.098c-.236 3.734-.835 7.45-1.627 11.09a2.393 2.393 0 00-1.402.671c-.38.381-.597.865-.668 1.368a48.688 48.688 0 01-6.992 1.322 2.337 2.337 0 00-.83-.818c.217-3.267.36-6.537.449-9.807.144-.092.281-.197.406-.322.304-.304.5-.678.606-1.07 3.64-.63 7.022-1.539 10.059-2.434zm247 .203a74.537 74.537 0 001.6 11.246c-3.746-.803-7.49-1.355-11.236-1.6 1.693-1.56 3.366-3.15 5.004-4.789a171.235 171.235 0 004.633-4.857zm28.035 2.336a2.337 2.337 0 001.155.726c.013 3.343.143 6.722.402 10.156a47.646 47.646 0 01-12.416 1.059 2.337 2.337 0 00-.504-.602 245.36 245.36 0 01-.482-10.18 2.337 2.337 0 00.707-.793c2.837.248 5.759.279 8.699-.025a37 37 0 002.44-.342zm-300.75.152c.802.14 1.61.26 2.43.344 3.013.306 5.974.256 8.832-.014.1.171.216.337.361.482.2.2.432.347.676.461-.09 3.227-.238 6.453-.455 9.676a2.337 2.337 0 00-.97 1.11 50.592 50.592 0 01-12.45-1.166c.269-3.464.4-6.885.412-10.281a2.337 2.337 0 001.165-.612zm260.83 9.201c1.183 3.945 2.041 7.496 2.584 10.777a2.337 2.337 0 00-.584.64 251.767 251.767 0 00-9.6.061 2.337 2.337 0 00-1.452-.832 70.411 70.411 0 00-.63-2.658c3.312-2.53 6.54-5.194 9.682-7.988zm-222.97.104c-.965 3.1-1.888 6.587-2.5 10.322a2.337 2.337 0 00-1.39 1.238c-3.165.092-6.328.228-9.489.44a2.37 2.37 0 00-.545-.862c-.017-.017-.037-.028-.054-.045.312-2.5.814-4.977 1.506-7.41a2.36 2.36 0 00.73-.49 2.405 2.405 0 00.69-1.594c3.628-.782 7.332-1.373 11.053-1.6zm225.38.023c3.66.244 7.3.834 10.867 1.61.036.57.26 1.131.688 1.56.37.37.836.587 1.324.664a48.63 48.63 0 011.336 6.922c-.17.1-.334.214-.479.36a2.362 2.362 0 00-.47.687 252.174 252.174 0 00-9.65-.436 2.337 2.337 0 00-1.165-1.02c-.618-3.742-1.535-7.228-2.451-10.347zm-223 .016c3.133 2.78 6.353 5.43 9.655 7.947-.219.844-.408 1.66-.586 2.469a2.394 2.394 0 00-1.532.683 2.375 2.375 0 00-.306.38c-3.099-.077-6.2-.084-9.303-.046a2.337 2.337 0 00-.512-.666c.544-3.278 1.402-6.827 2.584-10.768zm238.23 2.843a48.9 48.9 0 007.174 1.463 2.337 2.337 0 001.719 1.596c.177 2.095.376 4.189.605 6.28-.143.09-.28.195-.404.32-.076.076-.135.162-.2.246a251.505 251.505 0 00-6.372-.614 2.37 2.37 0 00-.594-1.035 2.365 2.365 0 00-.926-.562 54.068 54.068 0 00-1.42-7.25c.055-.046.114-.082.164-.133.097-.097.178-.202.254-.31zm-255.89.178c.038.044.067.092.108.133.134.135.284.244.441.34a48.892 48.892 0 00-1.422 6.963 2.388 2.388 0 00-1.201.642 2.39 2.39 0 00-.648 1.221c-2.066.176-4.13.374-6.19.602a2.346 2.346 0 00-.328-.42c-.031-.032-.069-.053-.102-.082.243-2.203.45-4.411.633-6.62a2.337 2.337 0 001.344-1.36c2.481-.295 4.94-.78 7.365-1.419zm226.59 6.324c.161.663.325 1.328.46 1.965a2.337 2.337 0 00-.128.162c-1.17.049-2.34.107-3.51.172 1.068-.752 2.127-1.52 3.178-2.299zm-197.3.098c1.079.798 2.167 1.582 3.262 2.352a250.37 250.37 0 00-3.547-.17 2.347 2.347 0 00-.166-.258c.131-.623.295-1.277.451-1.924zm-10.61 4.147c1.991.002 3.982.029 5.972.078.116.314.294.61.543.86.207.206.447.36.701.476-.615 4.607-.453 8.605.516 12.199-.041.035-.088.062-.127.101-.02.02-.032.043-.051.063-3.22-.323-6.456-.523-9.719-.62a2.337 2.337 0 00-1.58-1.533 34.208 34.208 0 01-.336-2.273c-.308-2.649-.311-5.404-.035-8.354a2.337 2.337 0 00.996-.964c1.04-.012 2.08-.035 3.12-.034zm218.54 0c.987-.001 1.974.02 2.962.03a2.337 2.337 0 001.178 1.05c.254 2.86.237 5.536-.063 8.115-.088.81-.212 1.607-.355 2.396a2.337 2.337 0 00-1.758 1.723c-3.227.095-6.442.292-9.654.61a2.337 2.337 0 00-.102-.114c1.029-3.686 1.206-7.794.555-12.553a2.337 2.337 0 001.021-1.172c2.07-.053 4.143-.084 6.215-.086zm7.025.101c3.28.089 6.559.24 9.836.461a2.37 2.37 0 001.111.904 50.594 50.594 0 01-1.098 12.207c-3.5-.272-6.955-.406-10.387-.418a2.337 2.337 0 00-.52-.95c.183-.917.332-1.85.448-2.798.303-2.975.26-5.9-.002-8.724a2.337 2.337 0 00.611-.682zm-232.75.006a2.337 2.337 0 00.744.77c-.256 2.865-.29 5.817.017 8.787.089.867.216 1.72.364 2.564a2.337 2.337 0 00-.543.871c-3.321.01-6.681.136-10.092.387a47.651 47.651 0 01-1.018-12.24 2.36 2.36 0 00.678-.674c3.28-.223 6.565-.374 9.85-.465zm17.596.13c2.332.097 4.662.219 6.988.38a164.725 164.725 0 0025.283 13.789 26.848 26.848 0 01-8.522 2.057c-.07-.243-.143-.486-.23-.723-1.09-2.805-3.272-4.986-6.076-6.233-2.493-1.09-5.142-1.09-7.479-.156-2.241.897-3.902 2.947-4.86 5.45-1.371-.216-2.745-.41-4.118-.586a2.344 2.344 0 00-.371-.5 2.375 2.375 0 00-1.139-.625c-.882-3.44-.998-7.31-.352-11.834.143-.091.278-.196.4-.319.208-.207.36-.447.475-.701zm197.64.001a2.337 2.337 0 00.947 1.016c.65 4.544.53 8.427-.363 11.879a2.337 2.337 0 00-1.647 1.224c-1.287.162-2.575.345-3.865.541-.79-2.617-2.647-4.621-4.965-5.703-2.337-.935-4.985-.934-7.478.156-2.805 1.247-5.144 3.584-6.078 6.233-.106.288-.199.58-.28.875a26.864 26.864 0 01-8.549-2.086 164.705 164.705 0 0025.19-13.746c2.359-.165 4.722-.288 7.087-.389zm42.178 1.357c3.795.246 7.576 2.15 10.098 4.952 2.337 2.804 3.739 6.388 4.05 10.283-3.895-.312-7.634-1.714-10.283-4.051-3.07-2.512-4.876-6.272-5.11-9.94.272-.116.527-.28.747-.5.219-.218.382-.473.498-.744zm-282 .149c.11.214.244.418.422.596.223.223.484.389.761.505-.216 3.716-2.155 7.544-5.125 10.09-2.804 2.338-6.388 3.74-10.283 4.051.312-3.895 1.714-7.478 4.207-10.127 2.53-3.091 6.325-4.901 10.018-5.115zm55.695 9.127c.974.039 1.985.272 2.998.662 2.181.935 4.05 2.805 4.83 4.986 1.402 4.051.002 9.037-3.582 12.31-.312.31-.78.623-1.092.935-3.584-.78-7.168-2.649-9.193-6.233-1.247-2.18-1.403-5.141-.623-7.634.779-2.182 2.182-3.74 3.896-4.52.857-.39 1.792-.545 2.766-.506zm170.38.098a6.34 6.34 0 012.765.564c1.87.78 3.273 2.336 3.897 4.518.935 2.493.623 5.453-.623 7.634-1.87 3.428-5.61 5.3-9.037 6.079-.312-.312-.623-.624-1.246-.78-3.214-2.934-4.668-7.245-3.924-11.025.06-.112.123-.228.183-.35 0-.09-.028-.168-.047-.251.06-.23.126-.458.204-.682.779-2.181 2.648-4.051 4.83-4.986 1.012-.468 2.024-.701 2.998-.721zm26.78 4.511a2.337 2.337 0 00.182.17c-1.83 5.79-5.178 10.653-9.55 13.645-5.298 3.584-12.308 4.052-17.605 1.715 3.583-1.246 6.543-3.584 8.257-6.545.456-.82.791-1.713 1.03-2.637 1.335.062 2.784-.543 3.957-1.57l.154-.154c.76-.76 1.284-1.591 1.695-2.344a2.337 2.337 0 002.11-1.687c3.235-.319 6.49-.51 9.771-.592zm-223.79.006c3.247.089 6.48.282 9.71.602.107.387.3.755.6 1.055a2.416 2.416 0 001.693.699c.404.788.989 1.67 1.734 2.416 1.205 1.205 2.701 1.677 4.067 1.566.238.976.588 1.92 1.076 2.797 1.714 2.96 4.674 5.298 8.258 6.545-5.298 2.493-12.31 1.869-17.607-1.715-4.43-3.03-7.81-7.98-9.625-13.869a2.337 2.337 0 00.095-.096zm48.15.104a164.17 164.17 0 0018.528 6.416c-.807.003-1.628.042-2.46.123-4.985.467-9.659 2.337-14.177 4.05l-1.403.467c-4.83 1.714-9.971 3.584-15.113 3.428h-.623c3.125-3.124 4.739-7.45 4.373-11.453a29.018 29.018 0 0010.875-3.031zm127.49 0a29.024 29.024 0 0011.019 3.04c-.307 3.957 1.305 8.207 4.386 11.288h-.623c-5.297.156-10.283-1.558-15.113-3.428l-1.402-.467c-4.519-1.714-9.194-3.583-14.18-4.05-.71-.07-1.408-.106-2.098-.118a164.187 164.187 0 0018.012-6.265zm34.083.969a2.337 2.337 0 01.002 0 2.337 2.337 0 00.25.369 7.116 7.116 0 01-1.323 1.773c-.681.545-1.483.971-2.195.965.061-.872.02-1.751-.11-2.62 1.125-.173 2.25-.341 3.376-.487zm-195.6.039c1.164.152 2.329.319 3.496.5-.14.861-.187 1.72-.143 2.568-.71.004-1.51-.42-2.19-.965a7.107 7.107 0 01-1.345-1.82c.068-.091.128-.185.182-.283zm123.16 9.683c-1.408 2.372-2.807 5.004-3.424 7.844-.623 2.649-.468 5.453.467 7.635a49.161 49.161 0 01-7.528-4.203c.127-3.49.868-6.965 2.237-10.227 2.764-.282 5.514-.632 8.248-1.049zm-50.615.028c2.785.421 5.587.777 8.404 1.058 1.368 3.22 2.105 6.696 2.223 10.205a42.796 42.796 0 01-7.686 4.188c.935-2.182 1.09-4.986.467-7.635-.615-2.83-2.006-5.452-3.408-7.817zm39.916 1.248a30.007 30.007 0 00-1.938 8.441c-2.994-2.285-5.72-4.913-8.021-7.865 3.338-.093 6.657-.289 9.959-.576zm-29.076.027c3.25.277 6.517.466 9.802.555a44.324 44.324 0 01-7.877 7.875 30.824 30.824 0 00-1.925-8.43zm16.35.598a45.378 45.378 0 0010.69 10.654c.035 4.752 1.12 9.523 3.233 13.83a35.432 35.432 0 01-7.848-3.067 76.176 76.176 0 001.461-4.722c0-.468-.157-.935-.468-1.246-3.117-2.338-5.92-5.3-7.946-8.727-.156-.312-.624-.467-.935-.467s-.778.155-.934.467c-1.246 2.181-2.805 4.052-4.52 5.766-1.09 1.09-2.337 2.026-3.583 2.96-.468.312-.623.78-.467 1.247a76.208 76.208 0 001.474 4.765 34.613 34.613 0 01-7.707 3.024c2.167-4.333 3.25-9.2 3.23-14.076a47.776 47.776 0 005.808-4.932c1.675-1.675 3.346-3.502 4.73-5.475.604.006 1.207.022 1.813.022.657 0 1.312-.016 1.968-.024zm-1.97 9.37a32.03 32.03 0 007.013 7.481 56.775 56.775 0 01-1.016 3.381 33.722 33.722 0 01-5.06-3.85 1.416 1.416 0 00-1.56 0 37.733 37.733 0 01-5.265 3.938 84.093 84.093 0 01-1.12-3.469c1.09-.779 2.18-1.714 3.114-2.804 1.558-1.403 2.804-2.962 3.895-4.676zm0 9.194a38.093 38.093 0 005.241 3.822c-1.434 3.849-3.225 7.53-5.24 11.135a81.354 81.354 0 01-5.172-11.209 36.485 36.485 0 005.172-3.748z"
          transform="translate(62.971 63.013)"
        ></path>
      </g>
    </svg>